<?xml version="1.0" encoding="UTF-8" standalone="no"?>
<svg
   width="300"
   height="300"
   viewBox="0 0 300 300"
   version="1.1"
   xml:space="preserve"
   style="clip-rule:evenodd;fill-rule:evenodd;stroke-linejoin:round;stroke-miterlimit:1.41421"
   id="svg39"
   xmlns="http://www.w3.org/2000/svg"
   xmlns:svg="http://www.w3.org/2000/svg"><defs
   id="defs43">
        
        
        
        
        
        
        
        
        
    
            
        
            
        
            
        </defs>
    <path
   d="m 145.49302,230.54739 c 0,0 99.227,-112.872 -55.860001,-185.019005 L 107.69002,170.40639 c 0,0 -47.808999,-31.949 -58.125999,-101.346001 0,0 -116.422995,84.494001 51.383999,165.474001 2.68383,8.0387 14.21793,28.93021 51.23455,53.73625 l 34.27755,-27.88268 c -14.0124,-7.00745 -30.79206,-15.06725 -40.9671,-29.84057 z"
   style="fill:#a52b00;fill-opacity:1;fill-rule:nonzero"
   id="path1968" /><path
   d="m 204.11781,259.12245 c -17.88715,-14.18746 -18.14871,-23.8189 -23.97831,-35.37114 0,0 108.417,-107.848 -60.118,-182.291003 0,0 14.755,24.112 10.426,117.272003 0,0 -50.814999,-17.649 -65.713999,-99.940003 0,0 -74.1200001,97.724003 80.501999,189.377003 0,0 12.5413,19.35698 31.49709,37.73632 z"
   style="fill:#f74c00;fill-opacity:1;fill-rule:nonzero"
   id="path827" />
<g
   id="g4686"
   transform="rotate(60,243.75724,92.189711)"><path
     id="path2428"
     style="fill:#00a0db;fill-opacity:1;stroke:none;stroke-width:1px;stroke-linejoin:miter"
     d="m 213.43317,48.027441 a 3.0308869,3.0308869 0 0 0 -0.52336,2.629354 l 17.24378,64.354675 a 3.0308869,3.0308869 0 0 0 5.85555,-8e-5 l 17.24359,-64.355412 a 3.0308869,3.0308869 0 0 0 -2.92846,-3.815374 l -34.48737,7.34e-4 a 3.0308869,3.0308869 0 0 0 -2.40373,1.186103 z" /><path
     id="path4439"
     style="fill:#00a0db;fill-opacity:1;stroke:none;stroke-width:1px;stroke-linejoin:miter"
     d="m 149.51841,93.063728 a 2.6328859,2.6328859 0 0 0 1.2936,1.936568 l 50.12211,28.938004 a 2.6328859,2.6328859 0 0 0 3.59675,-3.59684 l -28.9386,-50.122431 a 2.6328859,2.6328859 0 0 0 -4.14242,-0.544789 l -21.18351,21.184419 a 2.6328859,2.6328859 0 0 0 -0.74793,2.205069 z" /><path
     id="path4601"
     style="fill:#00a0db;fill-opacity:1;stroke:none;stroke-width:1px;stroke-linejoin:miter"
     d="m 292.50597,68.925128 a 2.6328859,2.6328859 0 0 0 -1.93657,1.293595 l -28.938,50.122117 a 2.6328859,2.6328859 0 0 0 3.59684,3.59674 l 50.12243,-28.938597 a 2.6328859,2.6328859 0 0 0 0.54479,-4.142415 L 294.71104,69.673056 a 2.6328859,2.6328859 0 0 0 -2.20507,-0.747928 z" /></g></svg>
